<svg xmlns="http://www.w3.org/2000/svg" xmlns:xlink="http://www.w3.org/1999/xlink" width="3000" zoomAndPan="magnify" viewBox="0 0 2250 2250.000011" height="3000" preserveAspectRatio="xMidYMid meet" version="1.0"><defs><clipPath id="0837ff674b"><path d="M 581 1669 L 2091 1669 L 2091 2153.5625 L 581 2153.5625 Z M 581 1669 " clip-rule="nonzero"/></clipPath><clipPath id="83ca532ee6"><path d="M 139 95.726562 L 2112 95.726562 L 2112 1549 L 139 1549 Z M 139 95.726562 " clip-rule="nonzero"/></clipPath></defs><path fill="#2265d8" d="M 1743.425781 579.484375 L 1180.824219 579.484375 C 898.335938 579.484375 647.601562 722.644531 497.585938 939.914062 C 463.304688 989.621094 434.25 1043.246094 411.316406 1099.972656 C 381.359375 1173.917969 361.855469 1253.171875 354.507812 1335.769531 C 352.386719 1359.929688 351.242188 1384.414062 351.242188 1409.0625 C 351.242188 1556.386719 390.175781 1695.140625 458.328125 1815.445312 C 425.84375 1736.359375 407.96875 1649.921875 407.96875 1559.488281 C 407.96875 1529.207031 409.925781 1499.335938 413.84375 1470.035156 C 422.988281 1401.554688 442.332031 1336.257812 470.40625 1275.699219 C 500.28125 1211.382812 539.867188 1152.453125 587.285156 1100.789062 C 711.675781 965.460938 889.929688 880.332031 1087.042969 880.332031 L 1362.425781 880.332031 C 1541.417969 880.332031 1663.765625 730.96875 1743.34375 579.566406 Z M 601.160156 1458.117188 C 621.078125 1367.929688 662.539062 1294.714844 725.710938 1238.644531 Z M 601.160156 1458.117188 " fill-opacity="1" fill-rule="evenodd"/><path fill="#0179fe" d="M 725.710938 1238.644531 C 662.621094 1294.714844 621.078125 1367.929688 601.160156 1458.117188 C 726.9375 1584.628906 900.867188 1663.308594 1092.347656 1663.308594 L 1740.324219 1663.308594 C 1659.4375 1486.113281 1516.277344 1373.394531 1319.085938 1373.394531 L 1130.542969 1373.394531 C 979.222656 1373.394531 838.917969 1323.199219 725.710938 1238.644531 Z M 725.710938 1238.644531 " fill-opacity="1" fill-rule="evenodd"/><g clip-path="url(#0837ff674b)"><path fill="#2265d8" d="M 1037.660156 1833.894531 C 864.957031 1833.894531 706.042969 1772.023438 581.816406 1669.429688 C 642.867188 1945.304688 890.175781 2153.269531 1183.679688 2153.269531 L 2090.714844 2153.269531 C 2007.136719 1964.730469 1824.390625 1833.894531 1616.832031 1833.894531 L 1037.582031 1833.894531 Z M 1037.660156 1833.894531 " fill-opacity="1" fill-rule="evenodd"/></g><g clip-path="url(#83ca532ee6)"><path fill="#0179fe" d="M 2110.957031 95.726562 L 1250.523438 95.726562 C 639.277344 95.726562 139.03125 595.890625 139.03125 1207.136719 C 139.03125 1326.058594 157.96875 1440.8125 192.984375 1548.386719 C 180.660156 1487.171875 174.128906 1423.835938 174.128906 1359.113281 C 174.128906 831.445312 605.894531 399.675781 1133.566406 399.675781 L 1697.554688 399.675781 C 1908.621094 399.675781 2011.21875 276.757812 2111.039062 95.644531 Z M 2110.957031 95.726562 " fill-opacity="1" fill-rule="evenodd"/></g></svg>